#N canvas -1 51 1366 689 10;
#X obj 86 588 noteout;
#X obj 96 199 * 127;
#X floatatom 106 227 5 0 0 0 - - -, f 5;
#X obj 96 171 i 0;
#X obj 127 171 == 0;
#X obj 96 143 bng 15 250 50 0 empty empty empty 17 7 0 10 -262144 -1
-1;
#X obj 96 42 stripnote;
#X floatatom 127 68 5 0 0 0 - - -, f 5;
#X obj 162 199 * 127;
#X floatatom 172 227 5 0 0 0 - - -, f 5;
#X obj 162 171 i 0;
#X obj 193 171 == 0;
#X obj 162 143 bng 15 250 50 0 empty empty empty 17 7 0 10 -262144
-1 -1;
#X obj 228 199 * 127;
#X floatatom 238 227 5 0 0 0 - - -, f 5;
#X obj 228 171 i 0;
#X obj 259 171 == 0;
#X obj 228 143 bng 15 250 50 0 empty empty empty 17 7 0 10 -262144
-1 -1;
#X obj 294 199 * 127;
#X floatatom 304 227 5 0 0 0 - - -, f 5;
#X obj 294 171 i 0;
#X obj 325 171 == 0;
#X obj 294 143 bng 15 250 50 0 empty empty empty 17 7 0 10 -262144
-1 -1;
#X obj 360 199 * 127;
#X floatatom 370 227 5 0 0 0 - - -, f 5;
#X obj 360 171 i 0;
#X obj 391 171 == 0;
#X obj 360 143 bng 15 250 50 0 empty empty empty 17 7 0 10 -262144
-1 -1;
#X obj 427 199 * 127;
#X floatatom 437 227 5 0 0 0 - - -, f 5;
#X obj 427 171 i 0;
#X obj 458 171 == 0;
#X obj 427 143 bng 15 250 50 0 empty empty empty 17 7 0 10 -262144
-1 -1;
#X obj 493 199 * 127;
#X floatatom 503 227 5 0 0 0 - - -, f 5;
#X obj 493 171 i 0;
#X obj 524 171 == 0;
#X obj 493 143 bng 15 250 50 0 empty empty empty 17 7 0 10 -262144
-1 -1;
#X obj 558 199 * 127;
#X floatatom 568 227 5 0 0 0 - - -, f 5;
#X obj 558 171 i 0;
#X obj 589 171 == 0;
#X obj 558 143 bng 15 250 50 0 empty empty empty 17 7 0 10 -262144
-1 -1;
#X obj 124 426 * 127;
#X floatatom 134 454 5 0 0 0 - - -, f 5;
#X obj 125 398 i 0;
#X obj 156 398 == 0;
#X obj 125 369 bng 15 250 50 0 empty empty empty 17 7 0 10 -262144
-1 -1;
#X obj 190 426 * 127;
#X floatatom 200 454 5 0 0 0 - - -, f 5;
#X obj 191 398 i 0;
#X obj 222 398 == 0;
#X obj 191 370 bng 15 250 50 0 empty empty empty 17 7 0 10 -262144
-1 -1;
#X obj 256 426 * 127;
#X floatatom 266 454 5 0 0 0 - - -, f 5;
#X obj 256 398 i 0;
#X obj 287 398 == 0;
#X obj 256 370 bng 15 250 50 0 empty empty empty 17 7 0 10 -262144
-1 -1;
#X obj 322 426 * 127;
#X floatatom 332 454 5 0 0 0 - - -, f 5;
#X obj 322 398 i 0;
#X obj 353 398 == 0;
#X obj 322 370 bng 15 250 50 0 empty empty empty 17 7 0 10 -262144
-1 -1;
#X obj 388 426 * 127;
#X floatatom 398 454 5 0 0 0 - - -, f 5;
#X obj 388 398 i 0;
#X obj 419 398 == 0;
#X obj 388 370 bng 15 250 50 0 empty empty empty 17 7 0 10 -262144
-1 -1;
#X obj 455 426 * 127;
#X floatatom 465 454 5 0 0 0 - - -, f 5;
#X obj 455 398 i 0;
#X obj 486 398 == 0;
#X obj 455 370 bng 15 250 50 0 empty empty empty 17 7 0 10 -262144
-1 -1;
#X obj 521 426 * 127;
#X floatatom 531 454 5 0 0 0 - - -, f 5;
#X obj 521 398 i 0;
#X obj 552 398 == 0;
#X obj 521 370 bng 15 250 50 0 empty empty empty 17 7 0 10 -262144
-1 -1;
#X obj 586 426 * 127;
#X floatatom 596 454 5 0 0 0 - - -, f 5;
#X obj 586 398 i 0;
#X obj 617 398 == 0;
#X obj 586 370 bng 15 250 50 0 empty empty empty 17 7 0 10 -262144
-1 -1;
#X obj 662 204 * 127;
#X floatatom 672 232 5 0 0 0 - - -, f 5;
#X obj 662 176 i 0;
#X obj 693 176 == 0;
#X obj 662 148 bng 15 250 50 0 empty empty empty 17 7 0 10 -262144
-1 -1;
#X obj 661 314 * 127;
#X floatatom 671 342 5 0 0 0 - - -, f 5;
#X obj 661 286 i 0;
#X obj 692 286 == 0;
#X obj 661 258 bng 15 250 50 0 empty empty empty 17 7 0 10 -262144
-1 -1;
#X obj 113 313 * 127;
#X floatatom 123 341 5 0 0 0 - - -, f 5;
#X obj 113 285 i 0;
#X obj 144 285 == 0;
#X obj 113 257 bng 15 250 50 0 empty empty empty 17 7 0 10 -262144
-1 -1;
#X obj 179 313 * 127;
#X floatatom 189 341 5 0 0 0 - - -, f 5;
#X obj 179 285 i 0;
#X obj 210 285 == 0;
#X obj 179 257 bng 15 250 50 0 empty empty empty 17 7 0 10 -262144
-1 -1;
#X obj 245 313 * 127;
#X floatatom 255 341 5 0 0 0 - - -, f 5;
#X obj 245 285 i 0;
#X obj 276 285 == 0;
#X obj 245 257 bng 15 250 50 0 empty empty empty 17 7 0 10 -262144
-1 -1;
#X obj 311 313 * 127;
#X floatatom 321 341 5 0 0 0 - - -, f 5;
#X obj 311 285 i 0;
#X obj 342 285 == 0;
#X obj 311 257 bng 15 250 50 0 empty empty empty 17 7 0 10 -262144
-1 -1;
#X obj 377 313 * 127;
#X floatatom 387 341 5 0 0 0 - - -, f 5;
#X obj 377 285 i 0;
#X obj 408 285 == 0;
#X obj 377 257 bng 15 250 50 0 empty empty empty 17 7 0 10 -262144
-1 -1;
#X obj 444 313 * 127;
#X floatatom 454 341 5 0 0 0 - - -, f 5;
#X obj 444 285 i 0;
#X obj 475 285 == 0;
#X obj 444 257 bng 15 250 50 0 empty empty empty 17 7 0 10 -262144
-1 -1;
#X obj 510 313 * 127;
#X floatatom 520 341 5 0 0 0 - - -, f 5;
#X obj 510 285 i 0;
#X obj 541 285 == 0;
#X obj 510 257 bng 15 250 50 0 empty empty empty 17 7 0 10 -262144
-1 -1;
#X obj 575 313 * 127;
#X floatatom 585 341 5 0 0 0 - - -, f 5;
#X obj 575 285 i 0;
#X obj 606 285 == 0;
#X obj 575 257 bng 15 250 50 0 empty empty empty 17 7 0 10 -262144
-1 -1;
#X obj 108 98 route 1 2 3 4 5 6 7 8 9 10 11 12 13 14 15 16 17 18 19
20 21 22 23 24 25 26 27, f 77;
#X obj 809 323 loadbang;
#X obj 11 12 ctlin;
#X obj 9 71 ctlout;
#X obj 86 14 notein 1;
#X obj 18 168 notein 2;
#X text 864 204 pd_midimix_button_control by gimmeapill 2018/02/14
Connect your Akai Midimix Out to pd Midi In 1 (This will work only
with the default Midimix mapping on channel 1) and Midimix In to pd
Midi Out. Connect pd Midi Out to your application. It is possible to
connect another controller if set to channel 2 The outputs will then
be merged.;
#X msg 809 376 1 \, 2 \, 3 \, 4 \, 5 \, 6 \, 7 \, 8 \, 9 \, 10 \, 11
\, 12 \, 13 \, 14 \, 15 \, 16 \, 17 \, 18 \, 19 \, 20 \, 21 \, 22 \,
23 \, 24 \, 25 \, 26 \, 27;
#X obj 831 439 makenote 127 25;
#X msg 722 417 1;
#X connect 1 0 0 1;
#X connect 1 0 2 0;
#X connect 3 0 1 0;
#X connect 3 0 4 0;
#X connect 4 0 3 1;
#X connect 5 0 3 0;
#X connect 6 0 7 0;
#X connect 6 0 133 0;
#X connect 8 0 9 0;
#X connect 8 0 0 1;
#X connect 10 0 8 0;
#X connect 10 0 11 0;
#X connect 11 0 10 1;
#X connect 12 0 10 0;
#X connect 13 0 14 0;
#X connect 13 0 0 1;
#X connect 15 0 13 0;
#X connect 15 0 16 0;
#X connect 16 0 15 1;
#X connect 17 0 15 0;
#X connect 18 0 19 0;
#X connect 18 0 0 1;
#X connect 20 0 18 0;
#X connect 20 0 21 0;
#X connect 21 0 20 1;
#X connect 22 0 20 0;
#X connect 23 0 24 0;
#X connect 23 0 0 1;
#X connect 25 0 23 0;
#X connect 25 0 26 0;
#X connect 26 0 25 1;
#X connect 27 0 25 0;
#X connect 28 0 29 0;
#X connect 28 0 0 1;
#X connect 30 0 28 0;
#X connect 30 0 31 0;
#X connect 31 0 30 1;
#X connect 32 0 30 0;
#X connect 33 0 34 0;
#X connect 33 0 0 1;
#X connect 35 0 33 0;
#X connect 35 0 36 0;
#X connect 36 0 35 1;
#X connect 37 0 35 0;
#X connect 38 0 39 0;
#X connect 38 0 0 1;
#X connect 40 0 38 0;
#X connect 40 0 41 0;
#X connect 41 0 40 1;
#X connect 42 0 40 0;
#X connect 43 0 44 0;
#X connect 43 0 0 1;
#X connect 45 0 43 0;
#X connect 45 0 46 0;
#X connect 46 0 45 1;
#X connect 47 0 45 0;
#X connect 48 0 49 0;
#X connect 48 0 0 1;
#X connect 50 0 48 0;
#X connect 50 0 51 0;
#X connect 51 0 50 1;
#X connect 52 0 50 0;
#X connect 53 0 54 0;
#X connect 53 0 0 1;
#X connect 55 0 53 0;
#X connect 55 0 56 0;
#X connect 56 0 55 1;
#X connect 57 0 55 0;
#X connect 58 0 59 0;
#X connect 58 0 0 1;
#X connect 60 0 58 0;
#X connect 60 0 61 0;
#X connect 61 0 60 1;
#X connect 62 0 60 0;
#X connect 63 0 64 0;
#X connect 63 0 0 1;
#X connect 65 0 63 0;
#X connect 65 0 66 0;
#X connect 66 0 65 1;
#X connect 67 0 65 0;
#X connect 68 0 69 0;
#X connect 68 0 0 1;
#X connect 70 0 68 0;
#X connect 70 0 71 0;
#X connect 71 0 70 1;
#X connect 72 0 70 0;
#X connect 73 0 74 0;
#X connect 73 0 0 1;
#X connect 75 0 73 0;
#X connect 75 0 76 0;
#X connect 76 0 75 1;
#X connect 77 0 75 0;
#X connect 78 0 79 0;
#X connect 78 0 0 1;
#X connect 80 0 78 0;
#X connect 80 0 81 0;
#X connect 81 0 80 1;
#X connect 82 0 80 0;
#X connect 83 0 84 0;
#X connect 83 0 0 1;
#X connect 85 0 83 0;
#X connect 85 0 86 0;
#X connect 86 0 85 1;
#X connect 87 0 85 0;
#X connect 88 0 89 0;
#X connect 89 0 0 1;
#X connect 90 0 88 0;
#X connect 90 0 91 0;
#X connect 91 0 90 1;
#X connect 92 0 90 0;
#X connect 93 0 94 0;
#X connect 93 0 0 1;
#X connect 95 0 93 0;
#X connect 95 0 96 0;
#X connect 96 0 95 1;
#X connect 97 0 95 0;
#X connect 98 0 99 0;
#X connect 98 0 0 1;
#X connect 100 0 98 0;
#X connect 100 0 101 0;
#X connect 101 0 100 1;
#X connect 102 0 100 0;
#X connect 103 0 104 0;
#X connect 103 0 0 1;
#X connect 105 0 103 0;
#X connect 105 0 106 0;
#X connect 106 0 105 1;
#X connect 107 0 105 0;
#X connect 108 0 109 0;
#X connect 108 0 0 1;
#X connect 110 0 108 0;
#X connect 110 0 111 0;
#X connect 111 0 110 1;
#X connect 112 0 110 0;
#X connect 113 0 114 0;
#X connect 113 0 0 1;
#X connect 115 0 113 0;
#X connect 115 0 116 0;
#X connect 116 0 115 1;
#X connect 117 0 115 0;
#X connect 118 0 119 0;
#X connect 118 0 0 1;
#X connect 120 0 118 0;
#X connect 120 0 121 0;
#X connect 121 0 120 1;
#X connect 122 0 120 0;
#X connect 123 0 124 0;
#X connect 123 0 0 1;
#X connect 125 0 123 0;
#X connect 125 0 126 0;
#X connect 126 0 125 1;
#X connect 127 0 125 0;
#X connect 128 0 129 0;
#X connect 128 0 0 1;
#X connect 130 0 128 0;
#X connect 130 0 131 0;
#X connect 131 0 130 1;
#X connect 132 0 130 0;
#X connect 133 0 5 0;
#X connect 133 1 97 0;
#X connect 133 2 47 0;
#X connect 133 3 12 0;
#X connect 133 4 102 0;
#X connect 133 5 52 0;
#X connect 133 6 17 0;
#X connect 133 7 107 0;
#X connect 133 8 57 0;
#X connect 133 9 22 0;
#X connect 133 10 112 0;
#X connect 133 11 62 0;
#X connect 133 12 27 0;
#X connect 133 13 117 0;
#X connect 133 14 67 0;
#X connect 133 15 32 0;
#X connect 133 16 122 0;
#X connect 133 17 72 0;
#X connect 133 18 37 0;
#X connect 133 19 127 0;
#X connect 133 20 77 0;
#X connect 133 21 42 0;
#X connect 133 22 132 0;
#X connect 133 23 82 0;
#X connect 133 24 87 0;
#X connect 133 25 92 0;
#X connect 134 0 140 0;
#X connect 135 0 136 0;
#X connect 135 1 136 1;
#X connect 135 2 136 2;
#X connect 137 0 0 0;
#X connect 137 0 6 0;
#X connect 137 1 6 1;
#X connect 138 0 0 0;
#X connect 138 1 0 1;
#X connect 140 0 141 0;
#X connect 140 0 142 0;
#X connect 141 0 0 0;
#X connect 141 1 0 1;
#X connect 142 0 3 1;
#X connect 142 0 10 1;
#X connect 142 0 15 1;
#X connect 142 0 20 1;
#X connect 142 0 25 1;
#X connect 142 0 30 1;
#X connect 142 0 35 1;
#X connect 142 0 40 1;
#X connect 142 0 85 1;
#X connect 142 0 90 1;
#X connect 142 0 130 1;
#X connect 142 0 125 1;
#X connect 142 0 120 1;
#X connect 142 0 115 1;
#X connect 142 0 110 1;
#X connect 142 0 105 1;
#X connect 142 0 100 1;
#X connect 142 0 95 1;
#X connect 142 0 80 1;
#X connect 142 0 75 1;
#X connect 142 0 70 1;
#X connect 142 0 65 1;
#X connect 142 0 60 1;
#X connect 142 0 55 1;
#X connect 142 0 50 1;
#X connect 142 0 45 1;
